<svg width="41" height="45" viewBox="0 0 41 45" fill="none" xmlns="http://www.w3.org/2000/svg">
<path d="M33 10.1111V16.4444H30.9091V18.5556H28.8182V20.6667H26.7273V22.7778H24.6364V24.8889H22.5455V27H20.4545V24.8889H18.3636V22.7778H16.2727V20.6667H14.1818V18.5556H12.0909V16.4444H10V10.1111H12.0909V8H18.3636V10.1111H20.4545V12.2222H22.5455V10.1111H24.6364V8H30.9091V10.1111H33Z" fill="#F02367"/>
<path d="M36.9 32.7273H38.95V30.6818H41V2.04545H38.95V0H4.1V2.04545H2.05V4.09091H0V40.9091H2.05V42.9545H4.1V45H38.95V42.9545H41V40.9091H38.95V38.8636H36.9V32.7273ZM32.8 40.9091H6.15V38.8636H4.1V34.7727H6.15V32.7273H32.8V40.9091ZM4.1 4.09091H36.9V28.6364H4.1V4.09091Z" fill="#4872E5"/>
</svg>
