<svg width="97" height="107" viewBox="0 0 97 107" fill="none" xmlns="http://www.w3.org/2000/svg">
<path d="M78.0731 23.9214V38.9051H73.1264V43.8997H68.1796V48.8943H63.2328V53.8889H58.286V58.8835H53.3392V63.878H48.3924V58.8835H43.4456V53.8889H38.4989V48.8943H33.5521V43.8997H28.6053V38.9051H23.6585V23.9214H28.6053V18.9268H43.4456V23.9214H48.3924V28.916H53.3392V23.9214H58.286V18.9268H73.1264V23.9214H78.0731Z" fill="#F02367"/>
<path d="M87.3 77.4279H92.15V72.5887H97V4.83925H92.15V0H9.7V4.83925H4.85V9.67849H0V96.7849H4.85V101.624H9.7V106.463H92.15V101.624H97V96.7849H92.15V91.9457H87.3V77.4279ZM77.6 96.7849H14.55V91.9457H9.7V82.2672H14.55V77.4279H77.6V96.7849ZM9.7 9.67849H87.3V67.7495H9.7V9.67849Z" fill="#4872E5"/>
</svg>
